<svg width="173" height="193" viewBox="0 0 173 193" fill="currentColor" xmlns="http://www.w3.org/2000/svg">
<path d="M91.5882 15.2368C91.5882 12.3926 89.3494 10.1579 86.5 10.1579C83.6506 10.1579 81.4118 12.3926 81.4118 15.2368V30.7784C58.5147 33.3179 40.7059 52.6179 40.7059 76.1842V136.217L24.5253 152.368H148.475L132.294 136.217V76.1842C132.294 52.6179 114.485 33.3179 91.5882 30.7784V15.2368ZM86.5 0C94.9465 0 101.765 6.80579 101.765 15.2368V22.4489C125.272 29.0516 142.471 50.7895 142.471 76.1842V132.053L173 162.526H0L30.5294 132.053V76.1842C30.5294 50.7895 47.7276 29.0516 71.2353 22.4489V15.2368C71.2353 6.80579 78.0535 0 86.5 0ZM86.5 193C74.1865 193 63.9082 184.264 61.5677 172.684H72.1512C74.1865 178.576 79.8853 182.842 86.5 182.842C93.1147 182.842 98.8135 178.576 100.849 172.684H111.432C109.092 184.264 98.8135 193 86.5 193Z" fill="currentColor"/>
</svg>
