<?xml version="1.0" encoding="UTF-8"?>
<svg fill="currentColor" id="Capa_2" data-name="Capa 2" xmlns="http://www.w3.org/2000/svg" viewBox="0 0 765.71 591.43">
  <defs>
    <style>
      .cls-1 {
        stroke-width: 0px;
      }
    </style>
  </defs>
  <g id="Capa_1-2" data-name="Capa 1">
    <g>
      <path fill="currentColor" class="cls-1" d="m418.03.39c99.63,0,199.25.1,298.88-.1,15.88-.03,28.8,5.16,38.82,17.54,7.03,8.68,9.74,18.75,9.92,29.67.08,5,.04,10,.04,14.99,0,133.11-.01,266.22.02,399.33,0,11.5-1.49,22.47-8.56,32.1-9.28,12.64-21.76,19.1-37.29,19.74-6.15.25-12.34.28-18.49,0-4.05-.18-5.62.98-5.47,5.26.29,8.65.17,17.32.05,25.99-.36,25.24-18.95,44.69-44.16,46.28-2.33.15-4.66.15-6.99.15-198.08,0-396.17-.03-594.25.08-17.7,0-32.09-5.85-42.49-20.52C1.92,562.26.05,552.47.05,542.12c.02-25.16,0-50.31,0-75.47C.06,354.03.1,241.41,0,128.79c-.01-14.18,3.18-26.85,13.51-37.22,8.62-8.66,19.03-13.14,31.06-13.81,6.64-.37,13.33-.3,19.98-.07,3.84.14,5.37-.96,5.2-5.03-.29-6.98.38-14.03-.16-20.98C67.33,22.66,89.98-.33,121.15,0c98.95,1.05,197.91.39,296.87.39Zm251.5,351.26c.16-1.84.27-2.5.27-3.15,0-74.64,0-149.28-.01-223.92,0-2.15-.16-4.25-.94-6.36-3.61-9.83-10.77-14.45-22.88-14.45-198.6,0-397.19,0-595.79,0-15.98,0-23.63,7.63-23.64,23.68-.02,109.63,0,219.25,0,328.88,0,1-.03,2,.03,3,.11,1.86.5,3.22,2.54,1.24.82-.8,1.74-1.5,2.58-2.29,18.56-17.32,37.1-34.66,55.67-51.98,37.15-34.64,74.42-69.17,111.4-103.99,7.66-7.21,14.97-7.74,23.16-.03,33.63,31.66,67.67,62.89,101.36,94.48,3.05,2.86,4.97,2.82,7.98.66,28.65-20.54,57.37-40.98,86.02-61.52,37.38-26.79,74.72-53.64,112.07-80.47,6.62-4.75,11.94-5.03,18.32-.5,3.89,2.76,7.42,6.02,11.17,8.99,28.16,22.33,56.34,44.64,84.51,66.96,8.5,6.73,16.98,13.47,26.18,20.77ZM417.4,26.57c-42.49,0-84.98,0-127.46,0-57.15,0-114.3-.01-171.45.01-15.05,0-22.58,7.54-22.63,22.49-.02,7.33-.06,14.66,0,21.99.07,7.43-1.06,6.53,6.71,6.53,166.12.02,332.24.01,498.36.02,16.33,0,32.66-.05,48.99.06,10.08.07,19.29,3.19,27.29,9.28,13.07,9.94,18.86,23.35,18.84,39.72-.09,117.47-.05,234.93-.05,352.4,0,1.67.14,3.35-.02,5-.29,2.92,1.02,3.67,3.77,3.6,6.83-.18,13.67.06,20.49-.16,7.67-.24,16.51-6.84,18.17-13.93.86-3.67.68-7.62.68-11.44.03-136.96.03-273.92.01-410.89,0-3-.18-5.99-.3-8.99-.06-1.51-.52-2.87-1.21-4.26-4.31-8.63-11.4-11.53-20.77-11.52-99.81.13-199.61.08-299.42.08Z"/>
      <path fill="currentColor" class="cls-1" d="m277.81,211.24c-.59-32.97,27.26-61.53,61.22-61.33,33.94.2,61.38,26.63,61.3,61.58-.08,34.64-27.63,60.97-61.28,61.14-34.02.17-61.91-28.49-61.23-61.39Z"/>
    </g>
  </g>
</svg>