<?xml version="1.0" encoding="UTF-8"?>
<svg id="Capa_2" data-name="Capa 2" xmlns="http://www.w3.org/2000/svg" viewBox="0 0 627.91 728.9">
  <defs>
    <style>
      .cls-1 {
        stroke-width: 0px;
      }
    </style>
  </defs>
  <g id="Capa_1-2" data-name="Capa 1">
    <g>
      <path fill="currentColor" class="cls-1" d="m314.02,728.88c-66.97,0-133.94.05-200.91-.03-28.38-.04-50.94-16.31-59.45-42.48-2.19-6.73-2.83-13.64-2.82-20.68.04-44.98-.05-89.96.14-134.94.02-4.03-1.34-5.32-4.93-6.23C19.23,517.72.37,494.35.22,466.7c-.29-52.81-.3-105.62.02-158.43.16-26.77,20.39-51.28,46.28-56.95,3.99-.87,4.39-2.83,4.39-6.2-.07-60.97-.19-121.95.01-182.92.09-26.98,12.77-46.23,37.34-57.48C95.8,1.28,103.88.06,112.12.06,212.57.04,313.03.06,413.49,0c4.12,0,7.32,1.34,10.22,4.24,29.15,29.26,58.35,58.48,87.56,87.68,20.73,20.72,41.5,41.41,62.25,62.11,2.78,2.77,3.6,6.14,3.59,10.01-.08,27.99.04,55.98-.13,83.96-.03,4.14.96,5.96,5.3,7.08,26.84,6.89,45.36,30.42,45.47,58.08.2,50.81.2,101.62.01,152.43-.1,28.6-18.56,51.96-46.28,58.98-3.71.94-4.5,2.55-4.49,6.06.11,45.65.19,91.29.03,136.94-.11,31.69-23.21,57.75-53.62,60.89-3.8.39-7.65.4-11.48.4-65.97.02-131.94.02-197.92.01Zm1.44-457.6c0,.06,0,.13,0,.19-81.8-.61-163.59-1.23-245.39-1.83-3.33-.02-6.67-.03-9.99.17-23.4,1.4-39.61,18.15-39.69,41.66-.17,50.81-.08,101.62-.03,152.44,0,6.88,1.08,13.59,4.44,19.77,8.36,15.41,21.48,22.58,38.8,22.57,166.76,0,333.52,0,500.29,0,.67,0,1.33.01,2,0,24.1-.64,41.42-17.37,41.59-41.42.34-50.14.15-100.29.08-150.44-.04-25.15-20.85-41.15-41.22-41.22-83.63-.27-167.25-1.21-250.88-1.9Zm-1.5-20.12s0-.01,0-.02c79.14.54,158.28,1.05,237.42,1.7,4.19.03,5.7-.74,5.65-5.36-.26-23.32-.27-46.65,0-69.97.05-4.59-1.36-5.4-5.57-5.38-43.82.15-87.64.1-131.46.09-11.87,0-14.99-3.16-14.99-15.17,0-43.82-.06-87.64.09-131.46.01-4.03-.82-5.31-5.11-5.3-95.3.13-190.61.08-285.91.12-26.07.01-43.04,17.13-43.05,43.31-.03,60.15.03,120.29-.09,180.44,0,3.96.78,5.38,5.1,5.41,79.31.43,158.61,1.04,237.92,1.61Zm-.05,275.27c-79.12,0-158.24.05-237.37-.12-4.68,0-5.63,1.33-5.62,5.76.16,44.31.08,88.62.11,132.92.01,26.39,17.02,43.53,43.34,43.53,133.09.03,266.18.01,399.27.02,4.52,0,9.01-.36,13.37-1.51,18.22-4.82,29.85-20.79,29.87-41.15.05-44.64-.06-89.28.13-133.92.02-4.66-1.3-5.64-5.75-5.63-79.12.14-158.24.1-237.37.1ZM425.48,35.99c-.1,1.01-.23,1.64-.23,2.27-.01,36.46.04,72.92-.1,109.38-.01,3.87,1.69,4.21,4.8,4.21,35.79-.07,71.59-.04,107.38-.07,1.22,0,2.65.55,3.44-.44-38.38-38.39-76.67-76.7-115.3-115.34Z"/>
      <path fill="currentColor" class="cls-1" d="m279.67,383.07c0-16.31.1-32.63-.08-48.94-.04-3.62.82-4.95,4.69-4.87,11.31.25,22.64.02,33.96.11,24.15.19,41.46,13.5,47.74,36.86,3.04,11.31,3.06,22.75.05,34.07-6.01,22.55-23.51,36.23-47.47,36.93-11.48.34-22.97,0-34.45.22-3.47.07-4.55-.93-4.51-4.44.17-16.64.07-33.29.07-49.94Zm31.2-38.34c-2.33,0-4.68.17-6.99-.04-3.3-.3-4.25,1.02-4.23,4.28.13,22.83.12,45.65.03,68.48-.01,2.96.77,4.22,3.92,4.05,4.65-.25,9.33.02,13.99-.2,9.05-.43,16.53-4.29,21.63-11.71,9.29-13.52,9.62-28.38,4.97-43.51-2.17-7.08-6-13.31-12.54-17.51-6.44-4.14-13.63-3.75-20.77-3.84Z"/>
      <path fill="currentColor" class="cls-1" d="m183.12,383.47c0-16.32.14-32.64-.1-48.96-.06-4.26,1.32-5.33,5.39-5.24,14.98.32,29.99-.13,44.95.51,28.67,1.23,37.79,31.02,26.06,49.41-5.71,8.96-13.89,14.39-24.58,15.01-9.13.53-18.31.46-27.46.29-3.76-.07-4.85,1.06-4.78,4.8.23,11.32-.02,22.65.15,33.97.05,3.27-.94,4.44-4.25,4.19-3.64-.28-7.34-.29-10.98,0-3.57.28-4.5-1.07-4.47-4.51.16-16.48.07-32.97.07-49.46Zm19.58-22.16c0,4.5.06,8.99-.03,13.49-.04,2.13.75,2.97,2.91,2.93,8.16-.15,16.33.01,24.47-.34,4.25-.18,8.03-1.95,10.75-5.55,3.89-5.16,4.18-10.79,2-16.56-2.5-6.62-8.16-9.11-14.61-9.51-7.47-.46-14.98-.17-22.47-.33-2.54-.06-3.09,1.19-3.05,3.37.08,4.16.02,8.33.03,12.49Z"/>
      <path fill="currentColor" class="cls-1" d="m386.18,382.96c0-16.16.09-32.32-.07-48.48-.04-3.71.69-5.27,4.9-5.22,19.66.23,39.32.2,58.98.02,3.87-.04,4.72,1.32,4.71,4.92-.04,11.9.09,11.9-11.67,11.9-10.83,0-21.66.12-32.49-.07-3.53-.06-4.59,1.13-4.47,4.58.23,6.82.24,13.67,0,20.49-.13,3.45.86,4.61,4.42,4.52,9.82-.23,19.66.03,29.49-.14,3.15-.06,4.31.76,4.38,4.1.25,12.2.37,12.19-11.7,12.19-7.33,0-14.67.14-21.99-.06-3.42-.1-4.65.93-4.59,4.49.19,12.33-.02,24.66.14,36.99.04,3.18-.74,4.52-4.14,4.26-3.81-.28-7.68-.29-11.49,0-3.55.27-4.51-1.04-4.48-4.5.16-16.66.07-33.32.07-49.98Z"/>
      <path fill="currentColor" class="cls-1" d="m238.51,607.4c23.98,0,47.96,0,71.95,0,2.33,0,4.67-.09,6.9.78,4.42,1.73,6.55,5.18,6.51,9.69-.03,4.41-2.45,7.44-6.72,8.93-2.43.85-4.91.76-7.41.76-47.8,0-95.59,0-143.39-.02-2.15,0-4.36-.05-6.43-.53-4.92-1.15-7.99-5.09-7.83-9.61.17-4.86,3.54-8.82,8.5-9.72,1.78-.32,3.65-.27,5.47-.27,24.15-.02,48.3-.01,72.44-.01Z"/>
    </g>
  </g>
</svg>